#!OML:ASF F:\VICON\USERDATA\INSTALL\rory3\rory3.ASF
:FULLY-SPECIFIED
:DEGREES
1
root 4.24497 17.6675 1.78889 18.2111 2.38074 -1.62197
lowerback -8.79742 1.3474 12.2208
upperback -12.6595 1.53564 1.51396
thorax -8.55757 -0.231155 -5.14195
lowerneck -2.11506 18.3805 11.3068
upperneck 7.2676 23.7178 4.05682
head 3.60624 12.1738 0.644201
rclavicle 1.33186e-014 -2.78299e-014
rhumerus 5.98904 -22.1912 28.3245
rradius 117.42
rwrist -72.5231
rhand -2.09189 -42.7429
rfingers 7.12502
rthumb 23.5853 -71.3165
lclavicle 1.33186e-014 -2.78299e-014
lhumerus 36.4389 32.4574 -7.86162
lradius 28.0991
lwrist 29.4072
lhand -21.3579 -17.3106
lfingers 7.12502
lthumb 5.02877 12.6098
rfemur -4.32394 9.4838 -2.67914
rtibia 15.1785
rfoot 20.9391 -14.892
rtoes -17.5517
lfemur -16.1458 -0.369186 -27.0925
ltibia 12.6548
lfoot -12.9535 8.4452
ltoes 11.6597
2
root 4.24661 17.6677 1.79206 18.266 2.44851 -1.63703
lowerback -8.86708 1.33749 12.3155
upperback -12.6424 1.50695 1.50805
thorax -8.5062 -0.250538 -5.2002
lowerneck -2.18019 18.4813 11.0835
upperneck 7.26785 23.8338 4.35949
head 3.54693 12.2357 0.765125
rclavicle -1.19271e-015 1.59028e-014
rhumerus 5.78229 -22.2086 28.4911
rradius 117.435
rwrist -72.5649
rhand -1.89537 -42.6269
rfingers 7.12502
rthumb 23.7737 -71.1762
lclavicle -1.19271e-015 1.59028e-014
lhumerus 36.2525 32.5926 -8.04469
lradius 28.0645
lwrist 29.451
lhand -20.2161 -17.6372
lfingers 7.12502
lthumb 6.13123 12.2541
rfemur -4.26812 9.36447 -2.6222
rtibia 15.0623
rfoot 20.7822 -14.9397
rtoes -17.479
lfemur -16.2247 -0.276663 -27.0911
ltibia 12.7557
lfoot -12.9975 8.28419
ltoes 11.5145
3
root 4.24524 17.6692 1.79361 18.3198 2.50808 -1.63608
lowerback -8.92313 1.30333 12.3124
upperback -12.6486 1.45472 1.53162
thorax -8.49156 -0.274338 -5.17317
lowerneck -2.23679 18.544 11.0057
upperneck 7.32306 23.9042 4.46973
head 3.5524 12.2744 0.818719
rclavicle 1.19271e-015 -4.77083e-015
rhumerus 5.72999 -22.2556 28.541
rradius 117.375
rwrist -72.5501
rhand -1.47845 -42.5521
rfingers 7.12502
rthumb 24.1735 -71.0488
lclavicle 1.19271e-015 -4.77083e-015
lhumerus 36.0223 32.5992 -8.22994
lradius 28.1139
lwrist 29.7697
lhand -20.9335 -17.7186
lfingers 7.12502
lthumb 5.43858 12.1916
rfemur -4.22926 9.37693 -2.59171
rtibia 14.9781
rfoot 20.6871 -15.0478
rtoes -17.9562
lfemur -16.3338 -0.270301 -27.0749
ltibia 12.8316
lfoot -13.0521 8.21625
ltoes 11.5174
4
root 4.24612 17.6691 1.79886 18.3628 2.56104 -1.66054
lowerback -9.00736 1.28708 12.3499
upperback -12.6596 1.42123 1.55781
thorax -8.46451 -0.291668 -5.16483
lowerneck -2.16625 18.5703 11.0083
upperneck 7.3038 23.9503 4.46021
head 3.53555 12.2961 0.809673
rclavicle -1.78906e-015 -4.77083e-015
rhumerus 5.66154 -22.2477 28.6015
rradius 117.37
rwrist -72.6715
rhand -1.50633 -42.5842
rfingers 7.12502
rthumb 24.1468 -71.0844
lclavicle -1.78906e-015 -4.77083e-015
lhumerus 35.7409 32.5707 -8.44994
lradius 28.198
lwrist 30.2882
lhand -22.9118 -17.6436
lfingers 7.12502
lthumb 3.52828 12.3069
rfemur -4.18555 9.31847 -2.53706
rtibia 14.9354
rfoot 20.7335 -15.0816
rtoes -18.5247
lfemur -16.3763 -0.323136 -27.0362
ltibia 12.8432
lfoot -13.1093 8.24019
ltoes 11.6364
5
root 4.24608 17.6665 1.80409 18.3602 2.59922 -1.62327
lowerback -8.99616 1.25828 12.3265
upperback -12.6728 1.38689 1.56179
thorax -8.49211 -0.308596 -5.14843
lowerneck -2.19328 18.5953 11.0079
upperneck 7.35802 23.9759 4.48994
head 3.55636 12.3118 0.827101
rclavicle 1.86858e-014 -2.54444e-014
rhumerus 5.49513 -22.2534 28.723
rradius 117.431
rwrist -72.9889
rhand -1.4618 -42.7133
rfingers 7.12502
rthumb 24.1895 -71.2079
lclavicle 1.86858e-014 -2.54444e-014
lhumerus 35.2813 32.3956 -8.92484
lradius 28.3267
lwrist 30.8179
lhand -23.8583 -17.4875
lfingers 7.12502
lthumb 2.61422 12.4762
rfemur -4.10583 9.21755 -2.5346
rtibia 14.8946
rfoot 20.8209 -15.1143
rtoes -18.4287
lfemur -16.377 -0.315016 -27.0759
ltibia 12.865
lfoot -13.1212 8.21613
ltoes 11.528
6
root 4.24587 17.6644 1.80763 18.3389 2.55431 -1.58068
lowerback -8.93901 1.246 12.279
upperback -12.6981 1.38271 1.55824
thorax -8.55341 -0.311346 -5.12678
lowerneck -2.21466 18.5995 11.0658
upperneck 7.47503 23.9708 4.49513
head 3.60975 12.3153 0.834483
rclavicle 1.13307e-014 -1.27222e-014
rhumerus 5.46625 -22.3439 28.6746
rradius 117.371
rwrist -73.2517
rhand -0.990836 -42.9884
rfingers 7.12502
rthumb 24.641 -71.4221
lclavicle 1.13307e-014 -1.27222e-014
lhumerus 34.7381 32.0607 -9.54676
lradius 28.5025
lwrist 31.4891
lhand -24.1953 -16.9054
lfingers 7.12502
lthumb 2.28876 13.062
rfemur -4.10332 9.18356 -2.5809
rtibia 14.9268
rfoot 20.7936 -15.1128
rtoes -18.2906
lfemur -16.3163 -0.373135 -27.1172
ltibia 12.7946
lfoot -13.0788 8.2811
ltoes 11.4782
7
root 4.24808 17.664 1.81121 18.3382 2.60076 -1.5599
lowerback -8.92838 1.23066 12.3005
upperback -12.7412 1.36655 1.54513
thorax -8.61364 -0.327148 -5.15298
lowerneck -2.16974 18.6011 11.0584
upperneck 7.54829 23.9707 4.5865
head 3.61373 12.321 0.861132
rclavicle 1.41137e-014 2.38542e-015
rhumerus 5.39841 -22.3995 28.65
rradius 117.337
rwrist -73.3974
rhand -0.277396 -43.0908
rfingers 7.12502
rthumb 25.3246 -71.4295
lclavicle 1.41137e-014 2.38542e-015
lhumerus 34.6237 32.1443 -9.56818
lradius 28.5313
lwrist 31.8161
lhand -24.227 -16.5944
lfingers 7.12502
lthumb 2.25813 13.3734
rfemur -4.12855 9.10658 -2.59235
rtibia 15.0887
rfoot 20.7307 -15.0854
rtoes -18.3468
lfemur -16.1775 -0.423781 -27.1327
ltibia 12.5705
lfoot -12.9857 8.22401
ltoes 11.6344
8
root 4.24557 17.6579 1.81323 18.3158 2.72308 -1.51667
lowerback -8.87231 1.17817 12.283
upperback -12.7842 1.30915 1.52599
thorax -8.70606 -0.362104 -5.16571
lowerneck -2.11102 18.6293 11.009
upperneck 7.50327 24.0111 4.72028
head 3.56143 12.3424 0.895069
rclavicle -2.18663e-015 1.03368e-014
rhumerus 5.06732 -22.3565 28.8761
rradius 117.483
rwrist -73.5236
rhand 0.335943 -42.7397
rfingers 7.12502
rthumb 25.9121 -70.9938
lclavicle -2.18663e-015 1.03368e-014
lhumerus 34.8848 32.6383 -9.05121
lradius 28.4177
lwrist 31.6461
lhand -23.5272 -16.7853
lfingers 7.12502
lthumb 2.93399 13.1742
rfemur -4.07673 9.07605 -2.57916
rtibia 15.21
rfoot 20.7084 -15.1483
rtoes -18.1672
lfemur -16.0709 -0.203501 -27.2221
ltibia 12.4311
lfoot -12.7161 8.09077
ltoes 9.7518
9
root 4.24147 17.6515 1.81188 18.3017 2.76054 -1.49734
lowerback -8.72628 1.13966 12.2721
upperback -12.8223 1.28369 1.51623
thorax -8.83882 -0.383473 -5.17211
lowerneck -2.04937 18.6538 11.0107
upperneck 7.35659 24.0567 4.72634
head 3.49774 12.3591 0.8808
rclavicle -1.15295e-014 5.56597e-015
rhumerus 4.79831 -22.3073 29.0739
rradius 117.571
rwrist -73.579
rhand 0.508362 -42.3233
rfingers 7.12502
rthumb 26.0772 -70.5532
lclavicle -1.15295e-014 5.56597e-015
lhumerus 35.0163 32.9786 -8.71969
lradius 28.3525
lwrist 31.6513
lhand -22.6237 -17.092
lfingers 7.12502
lthumb 3.80651 12.8537
rfemur -4.07656 9.0884 -2.57217
rtibia 15.2627
rfoot 20.7178 -15.198
rtoes -18.0808
lfemur -16.0545 -0.0442438 -27.2802
ltibia 12.4077
lfoot -12.4913 8.13056
ltoes 7.78857
10
root 4.24128 17.6554 1.81247 18.3044 2.77028 -1.46548
lowerback -8.64936 1.12916 12.2471
upperback -12.813 1.28134 1.51168
thorax -8.87142 -0.384133 -5.16432
lowerneck -2.07059 18.6587 10.9503
upperneck 7.22756 24.0697 4.70494
head 3.45019 12.3583 0.873509
rclavicle 1.05356e-014 1.98785e-014
rhumerus 4.62571 -22.3498 29.2098
rradius 117.586
rwrist -73.4642
rhand 0.147246 -42.2948
rfingers 7.12502
rthumb 25.7314 -70.5752
lclavicle 1.05356e-014 1.98785e-014
lhumerus 35.1568 33.3763 -8.3601
lradius 28.302
lwrist 31.7587
lhand -22.0009 -17.1712
lfingers 7.12502
lthumb 4.40787 12.7629
rfemur -4.10536 9.02559 -2.59398
rtibia 15.3235
rfoot 20.7488 -15.1497
rtoes -18.1023
lfemur -16.0383 -0.306767 -27.2353
ltibia 12.3833
lfoot -12.6544 8.13131
ltoes 9.78025
